<mxfile host="app.diagrams.net" modified="2021-11-30T17:42:15.303Z" agent="5.0 (Macintosh)" etag="C8V7rsVec-zPmC3lbEt6" version="14.9.8" type="github">
  <diagram id="Nq-YEcHzYtjYNLyjn4Bs" name="Page-1">
    <mxGraphModel dx="1120" dy="510" grid="1" gridSize="10" guides="1" tooltips="1" connect="1" arrows="1" fold="1" page="1" pageScale="1" pageWidth="850" pageHeight="1100" math="0" shadow="0">
      <root>
        <mxCell id="0" />
        <mxCell id="1" parent="0" />
        <mxCell id="ki5OJtDg8r-K1zsWyec3-3" style="edgeStyle=orthogonalEdgeStyle;rounded=0;orthogonalLoop=1;jettySize=auto;html=1;entryX=0;entryY=0.5;entryDx=0;entryDy=0;" edge="1" parent="1" source="ki5OJtDg8r-K1zsWyec3-1" target="ki5OJtDg8r-K1zsWyec3-2">
          <mxGeometry relative="1" as="geometry" />
        </mxCell>
        <mxCell id="ki5OJtDg8r-K1zsWyec3-5" style="edgeStyle=orthogonalEdgeStyle;rounded=0;orthogonalLoop=1;jettySize=auto;html=1;entryX=0;entryY=0.5;entryDx=0;entryDy=0;" edge="1" parent="1" source="ki5OJtDg8r-K1zsWyec3-1" target="ki5OJtDg8r-K1zsWyec3-4">
          <mxGeometry relative="1" as="geometry" />
        </mxCell>
        <mxCell id="ki5OJtDg8r-K1zsWyec3-1" value="&lt;div&gt;DEMO&lt;/div&gt;&lt;div&gt;(Up to 7yrs)&lt;br&gt;&lt;/div&gt;" style="ellipse;whiteSpace=wrap;html=1;" vertex="1" parent="1">
          <mxGeometry x="20" y="210" width="120" height="80" as="geometry" />
        </mxCell>
        <mxCell id="ki5OJtDg8r-K1zsWyec3-11" style="edgeStyle=orthogonalEdgeStyle;rounded=0;orthogonalLoop=1;jettySize=auto;html=1;entryX=0;entryY=0.5;entryDx=0;entryDy=0;" edge="1" parent="1" source="ki5OJtDg8r-K1zsWyec3-2" target="ki5OJtDg8r-K1zsWyec3-10">
          <mxGeometry relative="1" as="geometry" />
        </mxCell>
        <mxCell id="ki5OJtDg8r-K1zsWyec3-2" value="Provincial 1" style="ellipse;whiteSpace=wrap;html=1;" vertex="1" parent="1">
          <mxGeometry x="300" y="210" width="120" height="80" as="geometry" />
        </mxCell>
        <mxCell id="ki5OJtDg8r-K1zsWyec3-6" style="edgeStyle=orthogonalEdgeStyle;rounded=0;orthogonalLoop=1;jettySize=auto;html=1;entryX=0.5;entryY=1;entryDx=0;entryDy=0;" edge="1" parent="1" source="ki5OJtDg8r-K1zsWyec3-4" target="ki5OJtDg8r-K1zsWyec3-2">
          <mxGeometry relative="1" as="geometry">
            <Array as="points">
              <mxPoint x="200" y="310" />
              <mxPoint x="360" y="310" />
            </Array>
          </mxGeometry>
        </mxCell>
        <mxCell id="ki5OJtDg8r-K1zsWyec3-8" style="edgeStyle=orthogonalEdgeStyle;rounded=0;orthogonalLoop=1;jettySize=auto;html=1;entryX=0;entryY=0.5;entryDx=0;entryDy=0;" edge="1" parent="1" source="ki5OJtDg8r-K1zsWyec3-4" target="ki5OJtDg8r-K1zsWyec3-7">
          <mxGeometry relative="1" as="geometry" />
        </mxCell>
        <mxCell id="ki5OJtDg8r-K1zsWyec3-4" value="Interclub 1" style="ellipse;whiteSpace=wrap;html=1;" vertex="1" parent="1">
          <mxGeometry x="140" y="330" width="120" height="80" as="geometry" />
        </mxCell>
        <mxCell id="ki5OJtDg8r-K1zsWyec3-13" value="" style="edgeStyle=orthogonalEdgeStyle;rounded=0;orthogonalLoop=1;jettySize=auto;html=1;" edge="1" parent="1" source="ki5OJtDg8r-K1zsWyec3-7" target="ki5OJtDg8r-K1zsWyec3-2">
          <mxGeometry relative="1" as="geometry" />
        </mxCell>
        <mxCell id="ki5OJtDg8r-K1zsWyec3-15" value="" style="edgeStyle=orthogonalEdgeStyle;rounded=0;orthogonalLoop=1;jettySize=auto;html=1;" edge="1" parent="1" source="ki5OJtDg8r-K1zsWyec3-7" target="ki5OJtDg8r-K1zsWyec3-14">
          <mxGeometry relative="1" as="geometry" />
        </mxCell>
        <mxCell id="ki5OJtDg8r-K1zsWyec3-7" value="Interclub 2" style="ellipse;whiteSpace=wrap;html=1;" vertex="1" parent="1">
          <mxGeometry x="300" y="330" width="120" height="80" as="geometry" />
        </mxCell>
        <mxCell id="ki5OJtDg8r-K1zsWyec3-18" style="edgeStyle=orthogonalEdgeStyle;rounded=0;orthogonalLoop=1;jettySize=auto;html=1;entryX=0;entryY=0.5;entryDx=0;entryDy=0;" edge="1" parent="1" source="ki5OJtDg8r-K1zsWyec3-10" target="ki5OJtDg8r-K1zsWyec3-17">
          <mxGeometry relative="1" as="geometry" />
        </mxCell>
        <mxCell id="ki5OJtDg8r-K1zsWyec3-31" style="edgeStyle=orthogonalEdgeStyle;rounded=0;orthogonalLoop=1;jettySize=auto;html=1;entryX=0;entryY=0.5;entryDx=0;entryDy=0;" edge="1" parent="1" source="ki5OJtDg8r-K1zsWyec3-10" target="ki5OJtDg8r-K1zsWyec3-29">
          <mxGeometry relative="1" as="geometry">
            <Array as="points">
              <mxPoint x="550" y="50" />
            </Array>
          </mxGeometry>
        </mxCell>
        <mxCell id="ki5OJtDg8r-K1zsWyec3-10" value="Provincial 2" style="ellipse;whiteSpace=wrap;html=1;" vertex="1" parent="1">
          <mxGeometry x="490" y="210" width="120" height="80" as="geometry" />
        </mxCell>
        <mxCell id="ki5OJtDg8r-K1zsWyec3-16" value="" style="edgeStyle=orthogonalEdgeStyle;rounded=0;orthogonalLoop=1;jettySize=auto;html=1;" edge="1" parent="1" source="ki5OJtDg8r-K1zsWyec3-14" target="ki5OJtDg8r-K1zsWyec3-10">
          <mxGeometry relative="1" as="geometry" />
        </mxCell>
        <mxCell id="ki5OJtDg8r-K1zsWyec3-20" style="edgeStyle=orthogonalEdgeStyle;rounded=0;orthogonalLoop=1;jettySize=auto;html=1;" edge="1" parent="1" source="ki5OJtDg8r-K1zsWyec3-14" target="ki5OJtDg8r-K1zsWyec3-19">
          <mxGeometry relative="1" as="geometry" />
        </mxCell>
        <mxCell id="ki5OJtDg8r-K1zsWyec3-21" style="edgeStyle=orthogonalEdgeStyle;rounded=0;orthogonalLoop=1;jettySize=auto;html=1;entryX=0.5;entryY=1;entryDx=0;entryDy=0;" edge="1" parent="1" source="ki5OJtDg8r-K1zsWyec3-14" target="ki5OJtDg8r-K1zsWyec3-17">
          <mxGeometry relative="1" as="geometry" />
        </mxCell>
        <mxCell id="ki5OJtDg8r-K1zsWyec3-14" value="Interclub 3" style="ellipse;whiteSpace=wrap;html=1;" vertex="1" parent="1">
          <mxGeometry x="490" y="330" width="120" height="80" as="geometry" />
        </mxCell>
        <mxCell id="ki5OJtDg8r-K1zsWyec3-23" style="edgeStyle=orthogonalEdgeStyle;rounded=0;orthogonalLoop=1;jettySize=auto;html=1;" edge="1" parent="1" source="ki5OJtDg8r-K1zsWyec3-17" target="ki5OJtDg8r-K1zsWyec3-22">
          <mxGeometry relative="1" as="geometry" />
        </mxCell>
        <mxCell id="ki5OJtDg8r-K1zsWyec3-17" value="Provincial 3" style="ellipse;whiteSpace=wrap;html=1;" vertex="1" parent="1">
          <mxGeometry x="670" y="210" width="120" height="80" as="geometry" />
        </mxCell>
        <mxCell id="ki5OJtDg8r-K1zsWyec3-19" value="Interclub 4" style="ellipse;whiteSpace=wrap;html=1;" vertex="1" parent="1">
          <mxGeometry x="760" y="330" width="120" height="80" as="geometry" />
        </mxCell>
        <mxCell id="ki5OJtDg8r-K1zsWyec3-25" style="edgeStyle=orthogonalEdgeStyle;rounded=0;orthogonalLoop=1;jettySize=auto;html=1;" edge="1" parent="1" source="ki5OJtDg8r-K1zsWyec3-22" target="ki5OJtDg8r-K1zsWyec3-24">
          <mxGeometry relative="1" as="geometry" />
        </mxCell>
        <mxCell id="ki5OJtDg8r-K1zsWyec3-27" style="edgeStyle=orthogonalEdgeStyle;rounded=0;orthogonalLoop=1;jettySize=auto;html=1;entryX=0;entryY=0.5;entryDx=0;entryDy=0;" edge="1" parent="1" source="ki5OJtDg8r-K1zsWyec3-22" target="ki5OJtDg8r-K1zsWyec3-26">
          <mxGeometry relative="1" as="geometry">
            <Array as="points">
              <mxPoint x="1140" y="250" />
              <mxPoint x="1140" y="170" />
            </Array>
          </mxGeometry>
        </mxCell>
        <mxCell id="ki5OJtDg8r-K1zsWyec3-22" value="Provincial 4" style="ellipse;whiteSpace=wrap;html=1;" vertex="1" parent="1">
          <mxGeometry x="890" y="210" width="120" height="80" as="geometry" />
        </mxCell>
        <mxCell id="ki5OJtDg8r-K1zsWyec3-28" style="edgeStyle=orthogonalEdgeStyle;rounded=0;orthogonalLoop=1;jettySize=auto;html=1;" edge="1" parent="1" source="ki5OJtDg8r-K1zsWyec3-24" target="ki5OJtDg8r-K1zsWyec3-26">
          <mxGeometry relative="1" as="geometry" />
        </mxCell>
        <mxCell id="ki5OJtDg8r-K1zsWyec3-40" style="edgeStyle=orthogonalEdgeStyle;rounded=0;orthogonalLoop=1;jettySize=auto;html=1;entryX=0;entryY=0.5;entryDx=0;entryDy=0;" edge="1" parent="1" source="ki5OJtDg8r-K1zsWyec3-24" target="ki5OJtDg8r-K1zsWyec3-33">
          <mxGeometry relative="1" as="geometry" />
        </mxCell>
        <mxCell id="ki5OJtDg8r-K1zsWyec3-24" value="&lt;div&gt;Provincial 5&lt;/div&gt;&lt;div&gt;(13-15yrs)&lt;/div&gt;" style="ellipse;whiteSpace=wrap;html=1;" vertex="1" parent="1">
          <mxGeometry x="890" y="100" width="120" height="80" as="geometry" />
        </mxCell>
        <mxCell id="ki5OJtDg8r-K1zsWyec3-37" value="" style="edgeStyle=orthogonalEdgeStyle;rounded=0;orthogonalLoop=1;jettySize=auto;html=1;" edge="1" parent="1" source="ki5OJtDg8r-K1zsWyec3-26" target="ki5OJtDg8r-K1zsWyec3-33">
          <mxGeometry relative="1" as="geometry" />
        </mxCell>
        <mxCell id="ki5OJtDg8r-K1zsWyec3-38" style="edgeStyle=orthogonalEdgeStyle;rounded=0;orthogonalLoop=1;jettySize=auto;html=1;entryX=0;entryY=0.5;entryDx=0;entryDy=0;" edge="1" parent="1" source="ki5OJtDg8r-K1zsWyec3-26" target="ki5OJtDg8r-K1zsWyec3-35">
          <mxGeometry relative="1" as="geometry" />
        </mxCell>
        <mxCell id="ki5OJtDg8r-K1zsWyec3-26" value="National Open" style="ellipse;whiteSpace=wrap;html=1;" vertex="1" parent="1">
          <mxGeometry x="1270" y="130" width="120" height="80" as="geometry" />
        </mxCell>
        <mxCell id="ki5OJtDg8r-K1zsWyec3-32" style="edgeStyle=orthogonalEdgeStyle;rounded=0;orthogonalLoop=1;jettySize=auto;html=1;entryX=0;entryY=0.5;entryDx=0;entryDy=0;" edge="1" parent="1" source="ki5OJtDg8r-K1zsWyec3-29" target="ki5OJtDg8r-K1zsWyec3-30">
          <mxGeometry relative="1" as="geometry" />
        </mxCell>
        <mxCell id="ki5OJtDg8r-K1zsWyec3-29" value="Elite 3" style="ellipse;whiteSpace=wrap;html=1;" vertex="1" parent="1">
          <mxGeometry x="680" y="10" width="120" height="80" as="geometry" />
        </mxCell>
        <mxCell id="ki5OJtDg8r-K1zsWyec3-34" style="edgeStyle=orthogonalEdgeStyle;rounded=0;orthogonalLoop=1;jettySize=auto;html=1;" edge="1" parent="1" source="ki5OJtDg8r-K1zsWyec3-30" target="ki5OJtDg8r-K1zsWyec3-33">
          <mxGeometry relative="1" as="geometry" />
        </mxCell>
        <mxCell id="ki5OJtDg8r-K1zsWyec3-30" value="Elite 4" style="ellipse;whiteSpace=wrap;html=1;" vertex="1" parent="1">
          <mxGeometry x="890" y="10" width="120" height="80" as="geometry" />
        </mxCell>
        <mxCell id="ki5OJtDg8r-K1zsWyec3-36" style="edgeStyle=orthogonalEdgeStyle;rounded=0;orthogonalLoop=1;jettySize=auto;html=1;entryX=0;entryY=0.5;entryDx=0;entryDy=0;" edge="1" parent="1" source="ki5OJtDg8r-K1zsWyec3-33" target="ki5OJtDg8r-K1zsWyec3-35">
          <mxGeometry relative="1" as="geometry" />
        </mxCell>
        <mxCell id="ki5OJtDg8r-K1zsWyec3-33" value="Junior National" style="ellipse;whiteSpace=wrap;html=1;" vertex="1" parent="1">
          <mxGeometry x="1270" y="10" width="120" height="80" as="geometry" />
        </mxCell>
        <mxCell id="ki5OJtDg8r-K1zsWyec3-35" value="Senior National" style="ellipse;whiteSpace=wrap;html=1;" vertex="1" parent="1">
          <mxGeometry x="1540" y="10" width="120" height="80" as="geometry" />
        </mxCell>
      </root>
    </mxGraphModel>
  </diagram>
</mxfile>
